<svg xmlns="http://www.w3.org/2000/svg" viewBox="0 0 615.45 169.08"><defs><style>.cls-1{fill:#13232b;}</style></defs><title>santa_1</title><g id="Слой_2" data-name="Слой 2"><g id="Слой_1-2" data-name="Слой 1"><path class="cls-1" d="M615.29,34.53c-.61-1.59-2.84-2.2-5-1.38a5.34,5.34,0,0,0-1.54.91l-.61-.08-.53-.1-.8-.16c-.32-.07-.63-.16-.94-.26l-.49-.14A13.8,13.8,0,0,1,602.49,32c-2.45-1.44-4.28-3.75-6.8-5.09A10.11,10.11,0,0,0,591,25.76a7.4,7.4,0,0,1-1-1.34,6.15,6.15,0,0,1-.35-.73A10.66,10.66,0,0,1,589,21a15.35,15.35,0,0,1,.64-7.29c.08-.23.17-.47.24-.7a2.46,2.46,0,0,0,.1-.67,1.37,1.37,0,0,0-2-1.21,2.73,2.73,0,0,0-.91,1.31,15.42,15.42,0,0,0-.92,9.07c-.81-.51-1.76-.77-2.62-1.2A9.23,9.23,0,0,1,579.29,15a12.83,12.83,0,0,1-.54-7,1.41,1.41,0,0,0-1.33-1.68c-1.06-.09-1.48.76-1.62,1.68a17.25,17.25,0,0,0,0,4.86,19.58,19.58,0,0,0-7-1.69c.63,0,.13-4.48,0-4.91a18,18,0,0,0-1.92-5.1,2.46,2.46,0,0,0-1-1.07,1.35,1.35,0,0,0-1.73.56,2.77,2.77,0,0,0,.42,2.45c1.15,2.24,2,4.72,1.36,7.24a.87.87,0,0,1-.25.49.89.89,0,0,1-.61.13,6.89,6.89,0,0,1-4.37-1.68A5.21,5.21,0,0,1,559.08,5a13.33,13.33,0,0,0,.18-1.63,1.63,1.63,0,0,0-.71-1.4,1.46,1.46,0,0,0-1.74.43,3.22,3.22,0,0,0-.64,1.79,8.86,8.86,0,0,0,.93,5,7.15,7.15,0,0,1-3-1.16,8.66,8.66,0,0,0-1.27-.81,1.62,1.62,0,0,0-1.45,0,1.52,1.52,0,0,0-.38,2,3.75,3.75,0,0,0,1.65,1.41c3.77,2,8.33,2.67,12.51,3.29,2.54.38,5.31.27,7.79.95a8.79,8.79,0,0,1,3.6,2.22,9.92,9.92,0,0,1,1.38,1.7c.15.23.64,1.37,1,1.34a25.29,25.29,0,0,0-2.57.37,24.37,24.37,0,0,1-3.86.55,15.56,15.56,0,0,1-.5-3.37c0-.28,0-.57,0-.85a2.82,2.82,0,0,0-.17-.75,1.56,1.56,0,0,0-2.64-.43,3.12,3.12,0,0,0-.41,1.78,18.54,18.54,0,0,0,.19,2.85,1.46,1.46,0,0,0-.92,2.72,8,8,0,0,0,1.73.63,16.86,16.86,0,0,0,1.89,3.84c-1.08-.19-2.2-.08-3.29-.17-2.8-.23-5-1.89-6.83-3.9a14.68,14.68,0,0,1-3.54-7.16A1.62,1.62,0,0,0,555.76,15c-1.17.36-1.26,1.44-1,2.47a19.76,19.76,0,0,0,2,5.17,22.42,22.42,0,0,0-8.11,1.16c.68-.23-1.77-4.82-2-5.23a20.55,20.55,0,0,0-4.21-4.6A2.82,2.82,0,0,0,541,13.2a1.54,1.54,0,0,0-1.6,1.33c-.1,1,.75,1.78,1.49,2.43,2.17,1.89,4.09,4.18,4.52,7.11a1,1,0,0,1-.05.63,1,1,0,0,1-.59.4,7.89,7.89,0,0,1-5.36.08,6,6,0,0,1-3.69-3.85,15.2,15.2,0,0,0-.5-1.81,1.86,1.86,0,0,0-1.35-1.19,1.67,1.67,0,0,0-1.66,1.2,3.68,3.68,0,0,0,.08,2.18,10.14,10.14,0,0,0,3.1,4.87,8.19,8.19,0,0,1-3.73.07,9.89,9.89,0,0,0-1.7-.32,1.85,1.85,0,0,0-1.55.62,1.74,1.74,0,0,0,.44,2.26,4.29,4.29,0,0,0,2.36.8c4.86.5,10-.71,14.7-1.83,2.86-.68,5.76-2,8.68-2.31a10.07,10.07,0,0,1,4.77.83,11.35,11.35,0,0,1,2.19,1.22c.26.18,1.26,1.18,1.59,1a29,29,0,0,0-2.57,1.49c-2.3,1.47-4.72,3.18-7.58,2.93-2.13-.19-2.37,3.11-.24,3.3,5.2.45,8.51-3.54,13-5.31a11.67,11.67,0,0,1,7.27-.26h0a18.61,18.61,0,0,1,4.38,1.8q-5.45.81-10.82,2a10.36,10.36,0,0,0,9.73,6.36,17.55,17.55,0,0,0,7.76-2.2,23.54,23.54,0,0,0,3,6.48c.14.2.29.39.44.58a30.93,30.93,0,0,1,.65,5.41,20.27,20.27,0,0,1-.24,3.73c-.22.16-.47.3-.71.45a.72.72,0,0,0-.59.18.77.77,0,0,0-.2.26c-.33.17-.66.34-1,.49a.76.76,0,0,0-.05.51,4.26,4.26,0,0,0,1.23,1.46l.2.18a6.08,6.08,0,0,1-1.49,1.86A5.31,5.31,0,0,1,582,61.81a9.73,9.73,0,0,1-1.67-.21l-.22,0a25.63,25.63,0,0,1-6.1-2.25c-3.9-2.13-14-9.71-18.74-8.61a13,13,0,0,0-2,.64c-.05-.32-.1-.64-.14-1a23.05,23.05,0,0,1,1.34-9.94,8.44,8.44,0,0,1,.44-1,2.42,2.42,0,0,1,1-1.15,7.09,7.09,0,0,0-4.87,2.77,5.53,5.53,0,0,0-.78,2.1c-.13,1-.09.94-.17,1.87a8.74,8.74,0,0,1-1-2.64A8.49,8.49,0,0,0,549,47a7.59,7.59,0,0,0,1.15,2.5,4.42,4.42,0,0,1-1.69-.9,8.88,8.88,0,0,1-1.39-1.3,11.94,11.94,0,0,1,.41,1.21,7.44,7.44,0,0,0,.59,1.42,9.74,9.74,0,0,0,2.52,2.91c-3.25,2.41-5.1,6.21-6.7,10-.7,1.44-1.25,2.82-1.82,4.09a184,184,0,0,0-37.18.24,111.31,111.31,0,0,0-29.68,7.68h-.11l-.13-.24-.13-.21-.18-.24-.17-.19-.21-.2-.2-.17-.24-.16-.22-.14a3.62,3.62,0,0,0-.39-.18l-.13-.06a1.56,1.56,0,0,0,.09-.16,3,3,0,0,0-.24-2.09v0a8.32,8.32,0,0,0-.69-1.58c-.07-.11-.18-.32-.35-.31a.18.18,0,0,0-.08,0c-.11-.69-.22-1.37-.35-2s-.3-1.49-.46-2.2a15.74,15.74,0,0,0,2.78-.35,15.31,15.31,0,0,0,8.83-5.43c.16-.21.31-.43.46-.65s.1-.18.16-.26.23-.37.34-.56.24-.44.35-.67.17-.34.24-.51l.11-.23c.11-.26.2-.53.29-.8l.05-.15c.12-.38.23-.76.31-1.15l0-.21a14.51,14.51,0,0,0,.32-2.62,3.24,3.24,0,0,0,1.42-3.6c-.61-1.59-2.84-2.2-5-1.38a5.33,5.33,0,0,0-1.54.91l-.61-.08-.53-.1-.8-.16c-.32-.07-.63-.16-.94-.26l-.49-.14A13.8,13.8,0,0,1,474,45c-2.45-1.44-4.28-3.75-6.8-5.09a10.11,10.11,0,0,0-4.65-1.19,7.4,7.4,0,0,1-1-1.34,6.15,6.15,0,0,1-.35-.73,10.66,10.66,0,0,1-.65-2.64,15.36,15.36,0,0,1,.64-7.29c.08-.23.17-.47.24-.7a2.46,2.46,0,0,0,.1-.67,1.37,1.37,0,0,0-2-1.21,2.73,2.73,0,0,0-.91,1.31,15.42,15.42,0,0,0-.92,9.07c-.82-.51-1.76-.77-2.62-1.2a9.23,9.23,0,0,1-4.27-5.38,12.82,12.82,0,0,1-.54-7,1.41,1.41,0,0,0-1.33-1.68c-1.06-.09-1.48.76-1.62,1.68a17.25,17.25,0,0,0,0,4.86,19.59,19.59,0,0,0-7-1.69c.63,0,.13-4.48,0-4.91a18,18,0,0,0-1.92-5.1,2.46,2.46,0,0,0-1-1.07,1.35,1.35,0,0,0-1.73.56,2.77,2.77,0,0,0,.42,2.45c1.15,2.24,2,4.72,1.36,7.24a.87.87,0,0,1-.25.49.89.89,0,0,1-.61.13,6.89,6.89,0,0,1-4.37-1.68,5.21,5.21,0,0,1-1.74-4.32,13.3,13.3,0,0,0,.18-1.63,1.63,1.63,0,0,0-.71-1.4,1.46,1.46,0,0,0-1.74.43,3.22,3.22,0,0,0-.64,1.79,8.86,8.86,0,0,0,.93,5,7.15,7.15,0,0,1-3-1.16,8.64,8.64,0,0,0-1.27-.81,1.62,1.62,0,0,0-1.45,0,1.52,1.52,0,0,0-.38,2,3.75,3.75,0,0,0,1.65,1.41l.48.23-.13.28a15.42,15.42,0,0,0-.92,9.07c-.81-.51-1.76-.77-2.62-1.2a9.23,9.23,0,0,1-4.27-5.38,12.82,12.82,0,0,1-.54-7,1.41,1.41,0,0,0-1.33-1.68c-1.06-.09-1.48.76-1.62,1.68a17.25,17.25,0,0,0,0,4.86,19.58,19.58,0,0,0-7-1.69c.63,0,.13-4.48,0-4.91a18,18,0,0,0-1.92-5.1,2.46,2.46,0,0,0-1-1.07,1.35,1.35,0,0,0-1.73.56,2.77,2.77,0,0,0,.42,2.45c1.15,2.24,2,4.72,1.36,7.24a.87.87,0,0,1-.25.49.89.89,0,0,1-.61.13,6.89,6.89,0,0,1-4.37-1.68,5.21,5.21,0,0,1-1.74-4.32,13.31,13.31,0,0,0,.18-1.63,1.63,1.63,0,0,0-.71-1.4,1.46,1.46,0,0,0-1.74.43,3.22,3.22,0,0,0-.64,1.79,8.86,8.86,0,0,0,.93,5,7.15,7.15,0,0,1-3-1.16,8.64,8.64,0,0,0-1.27-.81,1.62,1.62,0,0,0-1.45,0,1.52,1.52,0,0,0-.38,2A3.75,3.75,0,0,0,390,22.08c3.77,2,8.33,2.67,12.51,3.29,2.54.38,5.31.27,7.79.95a6.17,6.17,0,0,1,.92.34,1.44,1.44,0,0,0-.36.79c-.1,1,.75,1.78,1.49,2.43a20,20,0,0,1,2,2l-.64.11a24.37,24.37,0,0,1-3.86.55,15.56,15.56,0,0,1-.5-3.37c0-.28,0-.57,0-.85a2.82,2.82,0,0,0-.17-.75,1.56,1.56,0,0,0-2.64-.43,3.12,3.12,0,0,0-.41,1.78,18.52,18.52,0,0,0,.19,2.85h0a1.5,1.5,0,0,0-.87-.47,1.67,1.67,0,0,0-1.66,1.2,3.68,3.68,0,0,0,.08,2.18,10.14,10.14,0,0,0,2.35,4.14l-.48,0c-2.8-.23-5-1.89-6.83-3.9a14.68,14.68,0,0,1-3.54-7.16,1.62,1.62,0,0,0-2.13-1.22c-1.17.36-1.25,1.44-1,2.47a19.76,19.76,0,0,0,2,5.17,22.42,22.42,0,0,0-8.11,1.16c.68-.23-1.77-4.82-2-5.23a20.55,20.55,0,0,0-4.21-4.6,2.82,2.82,0,0,0-1.47-.73,1.54,1.54,0,0,0-1.6,1.33c-.1,1,.74,1.78,1.49,2.43,2.17,1.89,4.09,4.18,4.52,7.11a1,1,0,0,1-.05.63,1,1,0,0,1-.59.4,7.89,7.89,0,0,1-5.36.08,6,6,0,0,1-3.69-3.85,15.21,15.21,0,0,0-.5-1.81,1.86,1.86,0,0,0-1.35-1.19,1.67,1.67,0,0,0-1.66,1.2,3.68,3.68,0,0,0,.08,2.18,10.14,10.14,0,0,0,3.1,4.87,8.19,8.19,0,0,1-3.73.07,9.9,9.9,0,0,0-1.7-.32,1.85,1.85,0,0,0-1.55.62,1.74,1.74,0,0,0,.44,2.26,4.29,4.29,0,0,0,2.36.8c4.86.5,10-.71,14.7-1.83,2.86-.68,5.76-2,8.68-2.31a10.07,10.07,0,0,1,4.77.83,11.35,11.35,0,0,1,2.19,1.22c.14.1.49.43.84.69a1.43,1.43,0,0,0-.1.78c-.58.32-1.16.66-1.73,1-2.3,1.47-4.72,3.18-7.58,2.92-2.13-.19-2.37,3.11-.24,3.3,5.11.44,8.4-3.4,12.75-5.21a29.92,29.92,0,0,0,7.5-.36h0a18.61,18.61,0,0,1,4.38,1.8q-5.45.81-10.82,2a10.36,10.36,0,0,0,9.73,6.36,17.55,17.55,0,0,0,7.76-2.2,26.56,26.56,0,0,0,1.23,3.24l-.13.17a5.53,5.53,0,0,0-.78,2.1c-.13,1-.09.94-.17,1.87a8.74,8.74,0,0,1-1-2.64,8.49,8.49,0,0,0-.08,4.6,7.59,7.59,0,0,0,1.15,2.5,4.42,4.42,0,0,1-1.69-.9,8.88,8.88,0,0,1-1.39-1.3,11.94,11.94,0,0,1,.41,1.21,7.43,7.43,0,0,0,.59,1.42,9.74,9.74,0,0,0,2.52,2.91,18.74,18.74,0,0,0-5.4,7.1,24.37,24.37,0,0,1-5.32-2c-3.9-2.13-14-9.71-18.74-8.61a13,13,0,0,0-2,.64c-.05-.32-.1-.64-.14-1a23.06,23.06,0,0,1,1.34-9.94,8.43,8.43,0,0,1,.44-1,2.42,2.42,0,0,1,1-1.15,7.09,7.09,0,0,0-4.87,2.77,5.53,5.53,0,0,0-.78,2.1c-.13,1-.09.94-.17,1.87a8.74,8.74,0,0,1-1-2.64,8.49,8.49,0,0,0-.08,4.6,7.59,7.59,0,0,0,1.15,2.5,4.42,4.42,0,0,1-1.69-.9,8.88,8.88,0,0,1-1.39-1.3,11.94,11.94,0,0,1,.41,1.21,7.43,7.43,0,0,0,.59,1.42A9.74,9.74,0,0,0,388,64.34c-3.25,2.41-5.1,6.21-6.7,10l-.12.24a63.43,63.43,0,0,0-13.87-.44c-8.25.73-16,3.48-23.37,7-.07-.42-.14-.85-.22-1.26-.14-.76-.3-1.49-.46-2.2a15.74,15.74,0,0,0,2.78-.35,15.31,15.31,0,0,0,8.83-5.43c.16-.21.31-.43.46-.65s.1-.18.16-.26.23-.37.34-.56.24-.44.35-.67.17-.34.24-.51l.11-.23c.11-.26.2-.53.29-.8l.05-.15c.12-.38.23-.76.31-1.15l0-.21a14.51,14.51,0,0,0,.32-2.62,3.24,3.24,0,0,0,1.42-3.6c-.61-1.59-2.84-2.2-5-1.38a5.33,5.33,0,0,0-1.54.91l-.61-.08-.54-.1-.79-.16c-.32-.07-.63-.17-.95-.26l-.48-.13A13.79,13.79,0,0,1,346.19,58c-2.45-1.44-4.28-3.75-6.8-5.09a10.11,10.11,0,0,0-4.65-1.19,7.41,7.41,0,0,1-1-1.34,6.15,6.15,0,0,1-.35-.73,10.66,10.66,0,0,1-.65-2.64,15.36,15.36,0,0,1,.64-7.29c.08-.23.17-.47.24-.7a2.46,2.46,0,0,0,.1-.67,1.37,1.37,0,0,0-2-1.21,2.73,2.73,0,0,0-.91,1.31,15.42,15.42,0,0,0-.92,9.07c-.81-.51-1.76-.77-2.62-1.2A9.23,9.23,0,0,1,323,40.92a12.82,12.82,0,0,1-.54-7,1.41,1.41,0,0,0-1.33-1.68c-1.06-.09-1.48.76-1.62,1.68a17.26,17.26,0,0,0,0,4.86,19.59,19.59,0,0,0-7-1.69c.63,0,.13-4.48,0-4.91a17.94,17.94,0,0,0-1.92-5.1,2.46,2.46,0,0,0-1-1.07,1.35,1.35,0,0,0-1.73.56,2.77,2.77,0,0,0,.42,2.45c1.15,2.24,2,4.72,1.36,7.24a.87.87,0,0,1-.25.49.89.89,0,0,1-.61.13,7.66,7.66,0,0,1-1-.11,1.28,1.28,0,0,0-1-.24,6.37,6.37,0,0,1-2.39-1.32,5.21,5.21,0,0,1-1.74-4.32,13.34,13.34,0,0,0,.18-1.63,1.63,1.63,0,0,0-.71-1.4,1.46,1.46,0,0,0-1.74.43,3.22,3.22,0,0,0-.64,1.79,8.85,8.85,0,0,0,.93,5,7.15,7.15,0,0,1-3-1.16l-.53-.38a1.41,1.41,0,0,0-1.33-1.66c-1.06-.09-1.48.76-1.62,1.68a17.25,17.25,0,0,0,0,4.86,19.59,19.59,0,0,0-7-1.69c.63,0,.13-4.48,0-4.91a18,18,0,0,0-1.92-5.1,2.46,2.46,0,0,0-1-1.07,1.35,1.35,0,0,0-1.73.56,2.77,2.77,0,0,0,.42,2.45c1.15,2.24,2,4.72,1.36,7.24a.87.87,0,0,1-.25.49.89.89,0,0,1-.61.13,6.89,6.89,0,0,1-4.37-1.68,5.21,5.21,0,0,1-1.74-4.32,13.29,13.29,0,0,0,.18-1.63,1.63,1.63,0,0,0-.71-1.4,1.46,1.46,0,0,0-1.74.43,3.22,3.22,0,0,0-.64,1.79,8.85,8.85,0,0,0,.93,5,7.15,7.15,0,0,1-3-1.16,8.65,8.65,0,0,0-1.27-.81,1.62,1.62,0,0,0-1.45,0,1.52,1.52,0,0,0-.38,2,3.75,3.75,0,0,0,1.65,1.41c3.77,2,8.33,2.67,12.51,3.29h.09a1.5,1.5,0,0,0-.64,1c-.1,1,.75,1.78,1.49,2.43a17.79,17.79,0,0,1,2.69,2.87,1.46,1.46,0,0,0-.83,2.74,8,8,0,0,0,1.73.63,17.14,17.14,0,0,0,.69,1.71,1.53,1.53,0,0,1-.39.21,7.89,7.89,0,0,1-5.36.08,6,6,0,0,1-3.69-3.85,15.22,15.22,0,0,0-.5-1.81,1.86,1.86,0,0,0-1.35-1.19,1.23,1.23,0,0,0-.44,0,15.13,15.13,0,0,1-.73-2.56,1.62,1.62,0,0,0-2.13-1.22c-1.17.36-1.25,1.44-1,2.47a19.75,19.75,0,0,0,2,5.17,22.42,22.42,0,0,0-8.11,1.16c.68-.23-1.77-4.82-2-5.23a20.55,20.55,0,0,0-4.21-4.6,2.82,2.82,0,0,0-1.47-.73,1.54,1.54,0,0,0-1.6,1.33c-.1,1,.75,1.78,1.49,2.43,2.17,1.89,4.09,4.18,4.52,7.11a1,1,0,0,1-.05.63,1,1,0,0,1-.59.4,7.89,7.89,0,0,1-5.36.08,6,6,0,0,1-3.69-3.85,15.21,15.21,0,0,0-.5-1.81,1.86,1.86,0,0,0-1.35-1.19,1.67,1.67,0,0,0-1.66,1.2,3.68,3.68,0,0,0,.08,2.18,10.14,10.14,0,0,0,3.1,4.87,8.19,8.19,0,0,1-3.73.07,9.89,9.89,0,0,0-1.7-.32,1.85,1.85,0,0,0-1.55.62,1.74,1.74,0,0,0,.44,2.26,4.29,4.29,0,0,0,2.36.8c4.86.5,10-.71,14.7-1.83,2.86-.68,5.76-2,8.68-2.31a10.07,10.07,0,0,1,4.77.83c.26.11.51.24.76.37a8.18,8.18,0,0,1-3.26,0,9.89,9.89,0,0,0-1.7-.32,1.85,1.85,0,0,0-1.55.62,1.74,1.74,0,0,0,.44,2.26,4.29,4.29,0,0,0,2.36.8A24.78,24.78,0,0,0,279,56c-2.29,1.47-4.69,3.15-7.54,2.9-2.13-.19-2.37,3.11-.24,3.3,5.2.45,8.51-3.54,13-5.31a11.67,11.67,0,0,1,7.27-.26h0a18.61,18.61,0,0,1,4.38,1.8q-5.45.81-10.82,2a10.36,10.36,0,0,0,9.73,6.36h.09l-.14.18a5.53,5.53,0,0,0-.78,2.1c-.13,1-.09.94-.17,1.87a8.74,8.74,0,0,1-1-2.64,8.49,8.49,0,0,0-.08,4.6,7.59,7.59,0,0,0,1.15,2.5,4.42,4.42,0,0,1-1.69-.9,8.88,8.88,0,0,1-1.39-1.3,11.91,11.91,0,0,1,.41,1.21,7.43,7.43,0,0,0,.59,1.42,9.74,9.74,0,0,0,2.52,2.91,16,16,0,0,0-4.12,4.71c-4.69-2.95-12.46-8.16-16.45-7.23a13,13,0,0,0-2,.64c-.05-.32-.1-.64-.14-1A23.06,23.06,0,0,1,273,66a8.46,8.46,0,0,1,.44-1,2.42,2.42,0,0,1,1-1.15,7.09,7.09,0,0,0-4.87,2.77,5.54,5.54,0,0,0-.78,2.1c-.13,1-.09.94-.17,1.87a8.74,8.74,0,0,1-1-2.64,8.49,8.49,0,0,0-.08,4.6,7.58,7.58,0,0,0,1.15,2.5,4.42,4.42,0,0,1-1.69-.9,8.88,8.88,0,0,1-1.39-1.3A11.89,11.89,0,0,1,266,74a7.42,7.42,0,0,0,.59,1.42,9.74,9.74,0,0,0,2.52,2.91c-2.88,2.13-4.65,5.34-6.13,8.65a154.47,154.47,0,0,0-36.38-1.16,100.64,100.64,0,0,0-15.86,1.28c-10.86,1.79-21.56,5.6-31.91,9.29-5.94,2.12-12,4.26-18.09,6v0l.08-.19.06-.15,0-.12.1-.25,0,0,.14-.35.29-.78,0-.13.07-.19v0l0-.05,0-.09.06-.18c.1-.3.2-.6.3-.9l.11-.34.17-.56.08-.28.07-.26.1-.35,0-.14,0-.1v0l.05-.19.11-.45.13-.52.08-.34v0h0a41.63,41.63,0,0,0,1-9.59c.37.06.74.12,1.12.15a8.5,8.5,0,0,0,6.4-1.85,11.41,11.41,0,0,0,2.35-3.38,52.26,52.26,0,0,0,4.3-11.65l.5.08c1.85.25,3.95.08,4.68-1.93a3.81,3.81,0,0,0,.12-.4,72.64,72.64,0,0,1,12.36,8.4,17.16,17.16,0,0,0,.94-1.72,38,38,0,0,0,2.58-9,6.23,6.23,0,0,0-.07-2.44,33.79,33.79,0,0,1-4.59.34,34.82,34.82,0,0,1-5.57-.41c-1.12-.17-2.22-.39-3.32-.64a1.31,1.31,0,0,1,.45,0,5.63,5.63,0,0,0-.22-2.58,7.69,7.69,0,0,0-2.76-3.77,14.29,14.29,0,0,0-6.89-2.36,10.73,10.73,0,0,0-2.32-.07,14.51,14.51,0,0,0-.7-1.86,10,10,0,0,0-8-6.17,5.86,5.86,0,0,0-.17-1.19,4.33,4.33,0,0,0-.54-1.2,42.53,42.53,0,0,0-1.81-5.72,3.78,3.78,0,0,0,.63.39c.39-1.29,1.63-2.9,1-5.74-1.09-5.25-2.72-6.6-4.23-8.32a8.74,8.74,0,0,0-2.43-1.79,34.47,34.47,0,0,0-8.74-9.18,26.75,26.75,0,0,0-13.24-5.06c-17.62-1.52-27.06,4.66-31.13,10-2.61,3.42-6.16,2-8.47.64a6.69,6.69,0,0,0,.29-2c0-.14,0-.28,0-.41a6.72,6.72,0,1,0-2.94,6.07c2.54,2.71,6.42,5.49,9,5.89a2.72,2.72,0,0,0,1.65-.17,18.42,18.42,0,0,0,3.06-1.69,3.9,3.9,0,0,1,3.29-.6l-.12.16A18,18,0,0,0,109,29.35a2.54,2.54,0,0,0,.21,1.62,5.67,5.67,0,0,1,.82-.3,34.33,34.33,0,0,0-3,6.24v0a20.43,20.43,0,0,0-3.44,2.32,10.79,10.79,0,0,0-3.61,5.56c0,.07,0,.15-.05.22l0-.13a14,14,0,0,0-.47,3.64l-.91.15-.8.16L96.9,49C83.47,45.31,68.68,45.2,56.09,51.2c-8.27-9.35-16.77-15-25.35-17a41,41,0,0,0-15.15-4.06.72.72,0,1,0-.09,1.43,37.68,37.68,0,0,1,9.85,2,.73.73,0,0,0-.37.59.68.68,0,0,0,.59.75,29.2,29.2,0,0,1,4.68.66C36.9,38.77,43.52,43.8,50,50.68c.79.83,1.55,1.68,2.32,2.53A38.82,38.82,0,0,0,40,65.08,12.4,12.4,0,0,0,20.14,78a15,15,0,0,0-3,.9c-3,1.27-5.54,3.9-5.91,7.11a6.11,6.11,0,0,0,1.49,4.82,6.44,6.44,0,0,0,5.53,1.75,5.25,5.25,0,0,0,3.33-1.63A3.13,3.13,0,0,0,22,87.43a2.36,2.36,0,0,0-2.53-1,1.73,1.73,0,0,0-.72.37c-.51.45-.81,1.2-1.48,1.36a1.3,1.3,0,0,1-1.45-1,2.46,2.46,0,0,1,.4-1.85,7,7,0,0,1,4.84-2.83,8.06,8.06,0,0,1,3.43,4.18,32.33,32.33,0,0,1,1.74,5.21c.42,1.67.74,3.37,1,5.07.71,4.34,1.1,8.71,1.44,13.09a1.78,1.78,0,0,0-.85.29,1.81,1.81,0,0,0-.82,1.66l0,.42c.16,2.15.33,4.35.53,6.55,0,0,0,.06,0,.09q.07.76.15,1.53l.12,1.16c.29,2.9.58,5.85,1.08,8.77v0a42,42,0,0,0,2.57,9.29c1.83,4.38,4.11,7.31,7.17,9.23.77.48,1.56.93,2.37,1.33l-7.77,10.2-9.07-.22h-.05a49,49,0,0,1-10-.92c-2.7-.64-7.57-2.41-9.8-7.16A10.71,10.71,0,0,1,6,140.58a6.49,6.49,0,0,1,6.8-1.87A7,7,0,0,1,17,144.5a4.81,4.81,0,0,1-1.6,4,2.51,2.51,0,0,1-2.5.46,2,2,0,0,1-1.42-1.2,4.17,4.17,0,0,1,.73-3.33,1.71,1.71,0,0,0-.51-2.36,1.75,1.75,0,0,0-.42-.2,1.7,1.7,0,0,0-1.94.71,7.4,7.4,0,0,0-1.08,6.32,5.32,5.32,0,0,0,3.57,3.3,5.89,5.89,0,0,0,5.72-1,8.23,8.23,0,0,0,2.84-7.06,10.43,10.43,0,0,0-6.42-8.62,9.81,9.81,0,0,0-10.46,2.75A14.19,14.19,0,0,0,1.37,153.7c2.1,4.48,6.4,7.68,12.1,9a51.64,51.64,0,0,0,10.65,1h0l9.92.25h0l11.53.3c6.16.17,12.44.35,18.77.57,8.78.3,17.65.65,26.41,1.08,12.55.61,25.32,1,37.66,1.4,9.31.29,18.95.59,28.41,1l14.42.6.73,0,2,.08c6.17.21,13.75,0,18-5.32s3.5-13.32-1.62-18a11.45,11.45,0,0,0-8.57-3.11,10,10,0,0,0-8.42,6.54,7.82,7.82,0,0,0,1.86,7.81,6.83,6.83,0,0,0,7,1.69,7.52,7.52,0,0,0,4.75-4.7,4.11,4.11,0,0,0-1-4,1.7,1.7,0,0,0-1.69-.48,1.68,1.68,0,0,0-.72.4,1.7,1.7,0,0,0-.08,2.41.72.72,0,0,1,.21.77,4.21,4.21,0,0,1-2.47,2.31,3.38,3.38,0,0,1-3.55-.84,4.37,4.37,0,0,1-1-4.37,6.65,6.65,0,0,1,5.44-4.17,8.16,8.16,0,0,1,6,2.23,9.93,9.93,0,0,1,1.27,13.35,11,11,0,0,1-6.59,3.59h0a45.3,45.3,0,0,1-10.65.38L158.09,165l-1.17-1.77-5.34-8.09.77-.41c5.33-2.93,9.67-8.19,13.21-12.48a1.82,1.82,0,0,0-.25-2.56l-.06,0c1.19-1.68,2.21-3.48,3.24-5.26h0c1.26-2.19,2.49-4.73,4.32-6.5A6.16,6.16,0,0,1,176.6,126a8,8,0,0,1,1.6,1,4.05,4.05,0,0,1,1.5,2.65c.07.9-.5,2.32-1.59,2.3-.83,0-1.07-.94-1.73-1.29a2.08,2.08,0,0,0-2.79.77,2.32,2.32,0,0,0-.25,2.14,3.85,3.85,0,0,0,1.49,1.72,5.91,5.91,0,0,0,8.59-2.06,7.26,7.26,0,0,0-.44-7.32,9.61,9.61,0,0,0-2.65-2.82,12.66,12.66,0,0,0-1.38-.84,9.6,9.6,0,0,0,1.15-3.68c0-.21,0-.42,0-.64a9.67,9.67,0,0,0-19.27-1.52c0,.29-.06.57-.07.87a9.66,9.66,0,0,0,.3,2.72l-.28.08a7.65,7.65,0,0,0-3.63,3,4.92,4.92,0,0,1-3.73,2,10.67,10.67,0,0,1-1.78-.14,50.08,50.08,0,0,0-2.53-5.94l.55-.32c3.94-2.43,9.49-7.1,11.33-11.39a7.53,7.53,0,0,0,.57-2,3.24,3.24,0,0,0-.1-1.51c8.84-1.88,17.52-4.57,26-7.2,11.43-3.54,23.25-7.2,35.21-8.83q2-.27,4-.47c11.93,0,23.64,1.76,34.39,4-1.31,3.07-2.47,5.64-5.88,7.24-1.34.63-3.63-.48-4.18-.77-1.45-.75-6.16,4.62-13.23,9.84a56.21,56.21,0,0,1-9.14,5.58l0-.19-3.68.48-1.75.23s-.67,1.46,0,5.82,2,4.31,2,4.31l.84-.57,3.09-2.09.11-.5.21-.09c0,.18,0,.36,0,.55a10,10,0,0,0,.36,3.64c.33.91.75,1,.75,1l.48-.2.45-.19,3.45-1.44.29-.65v.12a38.1,38.1,0,0,0,4.48-3.39,153.66,153.66,0,0,0,15.13-14q.87-1,1.65-1.88c1.88-.06,4.13-.16,6.6-.38,1.27.28,2.74.54,4.33.75-1.35,1.13-2.82,2.31-4.43,3.49a56.21,56.21,0,0,1-9.14,5.58l0-.19-3.68.48-1.75.23s-.67,1.46,0,5.82,2,4.31,2,4.31l.84-.57,3.09-2.09.11-.5.21-.09c0,.18,0,.36,0,.55a10,10,0,0,0,.36,3.64c.33.91.75,1,.75,1l.48-.2.45-.19,3.45-1.44.29-.65v.12a38.08,38.08,0,0,0,4.48-3.39,153.65,153.65,0,0,0,15.13-14q.87-1,1.65-1.88c1.88-.06,4.13-.16,6.6-.38l1.13.23a37,37,0,0,0,14.83,2.29,22.8,22.8,0,0,0,3-.43,39.81,39.81,0,0,0,12.11,1.53.8.8,0,0,1,.74,1.17,17,17,0,0,1-1.21,2c-1,1-2.21,2-3.59,3.09-1.18,1-2.5,2-4,3.14l.05.11-2.77,1.11-2.32.93a2.77,2.77,0,0,0,.14.91l-1.55.86,0,.12-2.91.67-2.43.56s-.5,1.87,2.16,5.76,3.88,4.24,3.88,4.24l.5-.71,2.76-3.93a1.66,1.66,0,0,0,.39.17c.73-.42,1.43-.85,2.11-1.28,1.72,1.5,2.43,1.59,2.43,1.59l.38-.78,2.12-4.31a1.65,1.65,0,0,0,.41.11,46.58,46.58,0,0,0,6.85-6.68,31.67,31.67,0,0,0,5.54-9.51l.36,0a22.77,22.77,0,0,0,3-.43,41.54,41.54,0,0,0,10.34,1.54c.64,1.64,1.32,1.63,1.32,1.63l.84-.57.46-.31a.79.79,0,0,1-.09.41,17,17,0,0,1-1.21,2c-1,1-2.21,2-3.59,3.09-1.18,1-2.5,2-4,3.14l.05.11-2.77,1.11-2.32.93a2.77,2.77,0,0,0,.14.91l-1.55.86,0,.12-2.91.67-2.43.56s-.5,1.87,2.16,5.76,3.88,4.24,3.88,4.24l.5-.71,2.76-3.93a1.66,1.66,0,0,0,.39.17c.73-.42,1.43-.85,2.11-1.28,1.72,1.5,2.43,1.59,2.43,1.59l.38-.78,2.12-4.31a1.65,1.65,0,0,0,.41.11,46.58,46.58,0,0,0,6.85-6.68,33.87,33.87,0,0,0,4.42-6.83l.62-.26.29-.65v.12a38.08,38.08,0,0,0,4.48-3.39,153.65,153.65,0,0,0,15.13-14q.87-1,1.65-1.88c1.88-.06,4.13-.16,6.6-.38a43.3,43.3,0,0,0,14.33.86C394.7,92,392.85,93.47,390.8,95a56.22,56.22,0,0,1-9.14,5.58l0-.19-3.68.48-1.75.23s-.67,1.46,0,5.82,2,4.31,2,4.31l.83-.57,3.09-2.09.11-.5.21-.09c0,.18,0,.36,0,.55a10,10,0,0,0,.36,3.64c.33.91.75,1,.75,1l.48-.2.45-.19L388,111.3l.29-.65v.12a38.07,38.07,0,0,0,4.48-3.39,153.65,153.65,0,0,0,15.13-14q.87-1,1.65-1.88l2.34-.09a34.09,34.09,0,0,0,11.32,1.21,23,23,0,0,0,2.66-.37h.54a39.63,39.63,0,0,0,11.9,1.48A.8.8,0,0,1,439,94.9a17,17,0,0,1-1.21,2c-1,1-2.21,2-3.59,3.09-1.18,1-2.5,2-4,3.14l.05.11-2.77,1.11-2.32.93a2.78,2.78,0,0,0,.14.91l-1.55.86,0,.12-2.91.67-2.43.56s-.5,1.87,2.16,5.76,3.88,4.24,3.88,4.24l.5-.71,2.76-3.93a1.66,1.66,0,0,0,.39.17c.73-.42,1.43-.85,2.11-1.28,1.72,1.5,2.43,1.59,2.43,1.59l.38-.78,2.12-4.31a1.65,1.65,0,0,0,.41.11,46.58,46.58,0,0,0,6.85-6.68,31.94,31.94,0,0,0,5.44-9.23,32.56,32.56,0,0,0,9.36.73,22.79,22.79,0,0,0,3-.43,39.81,39.81,0,0,0,12.11,1.53.8.8,0,0,1,.74,1.17,17,17,0,0,1-1.21,2c-1,1-2.21,2-3.59,3.09-1.18,1-2.5,2-4,3.14l.05.11-2.77,1.11-2.32.93a2.78,2.78,0,0,0,.14.91l-1.55.86,0,.12-2.91.67-2.43.56s-.5,1.87,2.16,5.76,3.88,4.24,3.88,4.24l.5-.71,2.76-3.93a1.66,1.66,0,0,0,.39.17c.73-.42,1.43-.85,2.11-1.28,1.72,1.5,2.43,1.59,2.43,1.59l.38-.78,2.12-4.31a1.66,1.66,0,0,0,.41.11,46.59,46.59,0,0,0,6.85-6.68,31.17,31.17,0,0,0,5.78-10.2,16.43,16.43,0,0,0,.87-6.92,3.07,3.07,0,0,0-.94-2.18,3.2,3.2,0,0,0-1.79-.44l-7.72-.3-1.53-.06c.08-.24.17-.48.24-.73a22.77,22.77,0,0,0,.65-3.18h0a4.11,4.11,0,0,0,.78-.19,3.75,3.75,0,0,0,2.51-3.37s0-.08,0-.12a109.67,109.67,0,0,1,29.63-7.72,181.68,181.68,0,0,1,36.34-.28A9.73,9.73,0,0,1,536.72,73c-1.34.63-3.63-.48-4.18-.77-1.45-.75-6.16,4.62-13.23,9.84a56.23,56.23,0,0,1-9.14,5.58l0-.19-3.68.48-1.74.23s-.67,1.46,0,5.82,2,4.31,2,4.31l.84-.57,3.09-2.09.11-.5L511,95c0,.18,0,.36,0,.55a10,10,0,0,0,.36,3.64c.33.91.75,1,.75,1l.48-.2.45-.19,3.45-1.44.29-.65v.12a38.07,38.07,0,0,0,4.48-3.39,153.67,153.67,0,0,0,15.13-14q.87-1,1.65-1.88c1.88-.06,4.13-.16,6.6-.38,4.44,1,11.15,1.87,18,.19a28.6,28.6,0,0,0,4-1.31c4.81,2.19,12,4.59,19.17,4a22.78,22.78,0,0,0,3-.43,39.81,39.81,0,0,0,12.11,1.53.8.8,0,0,1,.75,1.17,17,17,0,0,1-1.21,2c-1,1-2.21,2-3.59,3.09-1.18,1-2.5,2-4,3.14l.05.11-2.77,1.11-2.32.93a2.77,2.77,0,0,0,.14.91l-1.55.86,0,.12-2.91.67-2.43.56s-.5,1.87,2.16,5.76,3.88,4.24,3.88,4.24l.5-.71,2.76-3.93a1.66,1.66,0,0,0,.39.17c.73-.42,1.43-.85,2.11-1.28,1.72,1.5,2.43,1.59,2.43,1.59l.38-.78,2.12-4.31a1.65,1.65,0,0,0,.41.11A46.58,46.58,0,0,0,605.11,91a31.18,31.18,0,0,0,5.78-10.2,16.43,16.43,0,0,0,.87-6.92,3.07,3.07,0,0,0-.94-2.18A3.2,3.2,0,0,0,609,71.3l-7.72-.3-1.53-.06c.08-.24.17-.48.24-.73a22.77,22.77,0,0,0,.65-3.18h0a4.1,4.1,0,0,0,.78-.19A3.75,3.75,0,0,0,604,63.46a2.79,2.79,0,0,0,0-.52v0h.21c.68,0,.84-1,.16-1-.23,0-.46,0-.68,0l-.13-.24-.13-.21-.18-.24L603,61l-.21-.2-.2-.17-.24-.16-.22-.14a3.64,3.64,0,0,0-.39-.18l-.13-.06a1.56,1.56,0,0,0,.09-.16,3,3,0,0,0-.24-2.09v0a8.32,8.32,0,0,0-.69-1.58c-.07-.11-.18-.32-.35-.31a.18.18,0,0,0-.08,0c-.11-.69-.22-1.37-.35-2s-.3-1.49-.46-2.2a15.74,15.74,0,0,0,2.78-.35,15.31,15.31,0,0,0,8.83-5.43c.16-.21.31-.43.46-.65s.1-.18.16-.26.23-.37.34-.56.24-.44.35-.67.17-.34.24-.51l.11-.23c.11-.26.2-.53.29-.8l.05-.15c.12-.38.23-.76.31-1.15l0-.21a14.5,14.5,0,0,0,.32-2.62A3.24,3.24,0,0,0,615.29,34.53ZM292.39,49.69c.12,0,.14-.22.09-.49a43.59,43.59,0,0,1,6.18-.81h.08s0,.09,0,.14A22.44,22.44,0,0,0,292.39,49.69ZM444.47,44h0a20.58,20.58,0,0,1,2.62.91,5.22,5.22,0,0,0-1,.65l-.61-.08-.53-.1-.8-.16c-.32-.07-.63-.16-.94-.25l-.49-.14A13.86,13.86,0,0,1,440,43.59,12.58,12.58,0,0,1,444.47,44Zm15,24.21c-.22.16-.47.3-.71.45a.72.72,0,0,0-.59.18.77.77,0,0,0-.2.26c-.33.17-.66.34-1,.49a.76.76,0,0,0-.05.51,4.26,4.26,0,0,0,1.23,1.46h0a48.67,48.67,0,0,1-5.6,3.1l-.73-.12-.22,0a25.63,25.63,0,0,1-6.1-2.25c-1.64-.89-4.36-2.74-7.32-4.51-.07-.12-.18-.31-.34-.31a.18.18,0,0,0-.08,0c-.11-.69-.22-1.37-.35-2s-.3-1.49-.46-2.2a15.74,15.74,0,0,0,2.78-.35,15.31,15.31,0,0,0,8.83-5.43c.16-.21.31-.43.46-.65s.1-.18.16-.26.23-.37.34-.56.24-.44.35-.67.17-.34.24-.51l.11-.23c.09-.22.16-.44.24-.66a19.53,19.53,0,0,0,5.1-1.89,23.53,23.53,0,0,0,3,6.48c.14.2.29.39.44.58a30.91,30.91,0,0,1,.65,5.41A20.3,20.3,0,0,1,459.47,68.19ZM427.21,35.53c-.05-.11-.12-.22-.16-.34a10.66,10.66,0,0,1-.65-2.64,18.41,18.41,0,0,1-.16-2.22v0a19.75,19.75,0,0,0,2,5.17C427.93,35.51,427.57,35.53,427.21,35.53Zm-53.1,49c-1.34.63-3.63-.48-4.18-.77-1.45-.75-6.16,4.62-13.23,9.84a62.5,62.5,0,0,1-5.46,3.6L345,96.92l-1.53-.06c.08-.24.17-.48.24-.73a22.77,22.77,0,0,0,.65-3.18h0a4.1,4.1,0,0,0,.78-.19,3.75,3.75,0,0,0,2.51-3.37,2.79,2.79,0,0,0,0-.52v0h.21c.68,0,.84-1,.16-1-.23,0-.46,0-.68,0l-.13-.24-.13-.21-.18-.23-.17-.2-.21-.2-.2-.17-.24-.16a98.74,98.74,0,0,1,34.15-9.78C378.81,80,377.74,82.79,374.1,84.5Zm-42.43-3.3c-.22.16-.47.3-.71.45a.72.72,0,0,0-.59.18.77.77,0,0,0-.2.26c-.33.17-.66.34-1,.49a.76.76,0,0,0-.05.51,4.26,4.26,0,0,0,1.23,1.46l.2.18a6.08,6.08,0,0,1-1.49,1.86,5.31,5.31,0,0,1-3.36,1.15,9.72,9.72,0,0,1-1.67-.21l-.22,0c-.65-.16-1.3-.35-1.94-.55l-.17-.21-.17-.2-.21-.2-.2-.17-.24-.16-.22-.14a3.61,3.61,0,0,0-.38-.18l-.14-.06a1.58,1.58,0,0,0,.09-.16,3,3,0,0,0-.24-2.09v0a8.33,8.33,0,0,0-.69-1.58c-.07-.11-.18-.32-.35-.31a.18.18,0,0,0-.08,0c-.11-.69-.22-1.37-.35-2s-.3-1.49-.46-2.2a15.73,15.73,0,0,0,2.78-.35,15.31,15.31,0,0,0,8.83-5.43c.16-.21.31-.43.46-.65l.14-.24c.18.3.36.61.55.89s.29.39.44.58a30.93,30.93,0,0,1,.65,5.41A20.28,20.28,0,0,1,331.67,81.2ZM299.24,48.43a8.9,8.9,0,0,1,.9.11h-.42Zm155.81-12c-.93-.24-1.87-.45-2.81-.66A9.47,9.47,0,0,1,455.05,36.47Zm-3.38-.69h.08a5.35,5.35,0,0,0,.87,3A5.89,5.89,0,0,0,455.2,41a8.38,8.38,0,0,0,1.32.43A7.86,7.86,0,0,0,455.18,44a9.55,9.55,0,0,0-.3,1.28c-.48,0-1,0-1.43,0a12.43,12.43,0,0,0-1.78-1.63c-1.06-.79-2.32-1.11-3.34-1.94a7,7,0,0,1-.68-.62,12.2,12.2,0,0,1-1.81-2.53c-.35-.62-.67-1.25-1-1.9C447.11,36.42,449.36,35.77,451.67,35.78Zm-15-9c2.54.38,5.31.27,7.79.95A8.8,8.8,0,0,1,448,30a9.93,9.93,0,0,1,1.38,1.7c.15.23.64,1.37,1,1.34a25.31,25.31,0,0,0-2.57.37,24.37,24.37,0,0,1-3.86.55,15.55,15.55,0,0,1-.5-3.37c0-.28,0-.57,0-.85a2.82,2.82,0,0,0-.17-.75,1.56,1.56,0,0,0-2.64-.43,3.12,3.12,0,0,0-.41,1.78,18.52,18.52,0,0,0,.19,2.85,1.46,1.46,0,0,0-.92,2.72,8,8,0,0,0,1.73.63A16.86,16.86,0,0,0,443,40.33c-1.08-.19-2.2-.08-3.29-.17-2.8-.23-5-1.89-6.83-3.9a14.68,14.68,0,0,1-3.54-7.16,1.62,1.62,0,0,0-2.13-1.22,1.45,1.45,0,0,0-1,.79,13.75,13.75,0,0,1,.74-3.41l.16-.47A54.43,54.43,0,0,0,436.62,26.79ZM420.94,35l-1.14-.27-.05-.12A10,10,0,0,1,420.94,35Zm-4.88-.61a8.76,8.76,0,0,1,.81,2.56,1,1,0,0,1-.05.63,1,1,0,0,1-.59.4,8.33,8.33,0,0,1-3.68.46,15.47,15.47,0,0,1-.84-1.34c-.35-.62-.67-1.25-1-1.9C412.51,35.05,414.27,34.61,416.06,34.44Zm1.33,6.65c1.44-.34,2.89-.84,4.35-1.29.22.07.44.13.67.19a7.86,7.86,0,0,0-1.34,2.58,9.55,9.55,0,0,0-.3,1.28c-.48,0-1,0-1.43,0a12.43,12.43,0,0,0-1.78-1.63,9.15,9.15,0,0,0-1.47-.84Zm7.27,22.22a21.43,21.43,0,0,1,.24-5.74l.05.07A30.91,30.91,0,0,1,425.6,63c0,.31,0,.61,0,.92-.27.09-.54.2-.8.3C424.74,63.95,424.69,63.63,424.66,63.31ZM367.44,75.52a57,57,0,0,1,9.51,0q-4.07.53-8.05,1.37A95.41,95.41,0,0,0,345.55,85a5.15,5.15,0,0,0-.34-1.24v0a10.74,10.74,0,0,0-.58-1.36C351.81,78.92,359.42,76.23,367.44,75.52ZM327.26,49.47c-.93-.24-1.87-.45-2.81-.66A9.47,9.47,0,0,1,327.26,49.47Zm-3.38-.69H324a5.35,5.35,0,0,0,.87,3A5.89,5.89,0,0,0,327.4,54a8.37,8.37,0,0,0,1.32.43A7.86,7.86,0,0,0,327.38,57a9.56,9.56,0,0,0-.3,1.28c-.48,0-1,0-1.43,0a12.43,12.43,0,0,0-1.78-1.63c-1.06-.79-2.32-1.11-3.34-1.94a7,7,0,0,1-.68-.62A12.2,12.2,0,0,1,318,51.57q-.53-.93-1-1.9C319.32,49.42,321.56,48.77,323.87,48.79Zm-7.26-8a8.8,8.8,0,0,1,3.6,2.22,9.92,9.92,0,0,1,1.38,1.7c.15.23.64,1.37,1,1.34a25.34,25.34,0,0,0-2.57.37,24.37,24.37,0,0,1-3.86.55,15.56,15.56,0,0,1-.5-3.37c0-.28,0-.57,0-.85a2.83,2.83,0,0,0-.17-.75,1.56,1.56,0,0,0-2.64-.43,3.12,3.12,0,0,0-.41,1.78,18.52,18.52,0,0,0,.19,2.85,1.46,1.46,0,0,0-.92,2.72,8,8,0,0,0,1.73.63A16.91,16.91,0,0,0,315,53c-.27-.18-.55-.35-.84-.5a10.11,10.11,0,0,0-4.65-1.19,7.4,7.4,0,0,1-1-1.34,6.14,6.14,0,0,1-.35-.73,10.66,10.66,0,0,1-.65-2.64,15.53,15.53,0,0,1,.52-6.92l.8.12C311.37,40.17,314.14,40.07,316.62,40.74Zm-11.47-1.53a15.27,15.27,0,0,0-.49,7.91,10.22,10.22,0,0,0-1.57-.75,15,15,0,0,1-1.5-4.25,1.62,1.62,0,0,0-2.13-1.22A1.44,1.44,0,0,0,298.4,42c-.23-.47-.44-1-.63-1.44a12.48,12.48,0,0,1-.77-3.71A32,32,0,0,0,305.15,39.21Zm-19.31.43a30.5,30.5,0,0,1,5.57.71,8.79,8.79,0,0,1,3.6,2.22,9.91,9.91,0,0,1,1.38,1.7c.15.23.64,1.37,1,1.34a25.29,25.29,0,0,0-2.57.37,29.57,29.57,0,0,1-3.36.53c-.31-.65-.63-1.24-.84-1.63a15.08,15.08,0,0,1-.17-1.72c0-.28,0-.57,0-.85a2.83,2.83,0,0,0-.17-.75,1.56,1.56,0,0,0-2.64-.43c-.46-.44-.93-.87-1.42-1.27Zm8.8,14.07a9.51,9.51,0,0,1-.75-.89,24.45,24.45,0,0,1,4.38-1,7.5,7.5,0,0,1,1.61,0,5.92,5.92,0,0,0,2.31,1.8,8.36,8.36,0,0,0,1.32.43,7.86,7.86,0,0,0-1.34,2.58,9.5,9.5,0,0,0-.28,1.2l-.12.07c-.44,0-.88,0-1.32,0a12.43,12.43,0,0,0-1.78-1.63c-1.06-.79-2.32-1.11-3.34-1.94A7,7,0,0,1,294.64,53.71Zm2.23,22.61a23.06,23.06,0,0,1,1.34-9.94l0-.06a20.06,20.06,0,0,0,4.34-1.7,23.54,23.54,0,0,0,3,6.48c.14.2.29.39.44.58a30.93,30.93,0,0,1,.65,5.41q0,.81,0,1.6c-2.94-1.49-5.78-2.49-7.72-2a13,13,0,0,0-2,.64C296.95,77,296.9,76.64,296.86,76.31ZM99.8,162.58l-6.33-.21.2-5.88,6.34.15ZM90,156.86l-.19,5.62c-13.18-.63-26.58-1.09-39.53-1.46l5.31-4.37,2.47-2c2.65.26,5.28.43,7.82.58l3.72.24,2.17.15h0c4.84.32,9.66.53,14.46.7l3.77.12,0,.46ZM51.08,49.69A79.49,79.49,0,0,0,37.7,38.21q8.65,4.18,17.12,13.63l-.39.2-.8.44C52.79,51.54,51.94,50.6,51.08,49.69ZM44.33,151.75A47.33,47.33,0,0,0,53.42,154l-2.58,2.12-5.74,4.72-5.33-.14-2.22-.06Zm91.59,12.41-7.32-.23c-8.27-.26-16.72-.52-25.16-.86l.21-6.36h.05c8.11.17,16.49.34,24.71.74l2,.1c1.29.07,2.61.14,4,.19l6.14,5.79.86.81Zm16.66-1.38,1.13,1.71-7.55-.31L144.91,163l-5.58-5.26a34,34,0,0,0,9-1.38ZM187.1,95.22,182,96.79c9.11-3.23,18.47-6.39,27.92-8.05C202.2,90.56,194.56,92.91,187.1,95.22Zm55-8.49a176.79,176.79,0,0,1,20.26,1.66c-.26.53-.49,1-.72,1.56C255.43,88.65,248.87,87.49,242.12,86.73Zm234.51,2.42a.8.8,0,0,1,1,.78,1,1,0,0,1,0,.26c-.08.25-.17.48-.26.72l-.26-.06-5.57-1.09c.73,0,1.45-.08,2.17-.16C474.63,89.51,475.64,89.36,476.63,89.16ZM583.56,23.54c-.93-.24-1.87-.45-2.81-.66A9.48,9.48,0,0,1,583.56,23.54Zm-7.41,4.63a12.2,12.2,0,0,1-1.81-2.53c-.35-.62-.67-1.25-1-1.9,2.23-.24,4.48-.89,6.79-.88h.08a5.35,5.35,0,0,0,.87,3,5.89,5.89,0,0,0,2.58,2.15,8.38,8.38,0,0,0,1.32.43,7.86,7.86,0,0,0-1.34,2.58,9.55,9.55,0,0,0-.3,1.28c-.48,0-1,0-1.43,0a12.43,12.43,0,0,0-1.78-1.63c-1.06-.79-2.32-1.11-3.34-1.94A7,7,0,0,1,576.15,28.17Zm29,48.07a.8.8,0,0,1,1,.78,1,1,0,0,1,0,.26c-.08.25-.17.48-.26.72l-.26-.06-5.57-1.09c.73,0,1.45-.08,2.17-.16C603.14,76.59,604.15,76.44,605.13,76.23Z"/></g></g></svg>